<?xml version="1.0" encoding="UTF-8" standalone="no"?>
<!-- Created with Inkscape (http://www.inkscape.org/) -->

<svg
   xmlns:dc="http://purl.org/dc/elements/1.1/"
   xmlns:cc="http://creativecommons.org/ns#"
   xmlns:rdf="http://www.w3.org/1999/02/22-rdf-syntax-ns#"
   xmlns:svg="http://www.w3.org/2000/svg"
   xmlns="http://www.w3.org/2000/svg"
   xmlns:sodipodi="http://sodipodi.sourceforge.net/DTD/sodipodi-0.dtd"
   xmlns:inkscape="http://www.inkscape.org/namespaces/inkscape"
   width="74.545181mm"
   height="15.613148mm"
   viewBox="0 0 74.545181 15.613148"
   version="1.1"
   id="svg4798"
   inkscape:version="0.92.1 r15371"
   sodipodi:docname="tastonettis_logo.svg">
  <defs
     id="defs4792" />
  <sodipodi:namedview
     id="base"
     pagecolor="#ffffff"
     bordercolor="#666666"
     borderopacity="1.0"
     inkscape:pageopacity="0.0"
     inkscape:pageshadow="2"
     inkscape:zoom="1.4"
     inkscape:cx="128.55473"
     inkscape:cy="-153.65855"
     inkscape:document-units="mm"
     inkscape:current-layer="layer1"
     showgrid="false"
     inkscape:window-width="1920"
     inkscape:window-height="1017"
     inkscape:window-x="1912"
     inkscape:window-y="-8"
     inkscape:window-maximized="1"
     fit-margin-top="0"
     fit-margin-left="0"
     fit-margin-right="0"
     fit-margin-bottom="0" />
  <metadata
     id="metadata4795">
    <rdf:RDF>
      <cc:Work
         rdf:about="">
        <dc:format>image/svg+xml</dc:format>
        <dc:type
           rdf:resource="http://purl.org/dc/dcmitype/StillImage" />
        <dc:title></dc:title>
      </cc:Work>
    </rdf:RDF>
  </metadata>
  <g
     inkscape:label="Ebene 1"
     inkscape:groupmode="layer"
     id="layer1"
     transform="translate(-0.36720474,-2.2179141)">
    <path
       inkscape:connector-curvature="0"
       d="m 68.117968,10.549607 c 1.691979,1.913927 4.855763,2.997393 4.733861,3.818456 -0.132607,0.894535 -1.048931,1.110688 -1.938857,1.272919 -0.607137,0.110972 -2.176685,0.181222 -3.214441,-1.154586 -0.124295,-0.15993 -0.472657,0.645298 -0.567701,0.547558 z m -32.665862,0.575346 c 1.002357,-0.02875 1.465014,1.745439 1.486551,2.09756 0.06663,1.089455 -0.636263,1.610998 -1.527955,1.727041 -0.856653,0.111105 -1.704186,-0.414615 -1.883677,-1.164947 -0.397325,-1.659469 1.210988,-1.512199 0.779556,-2.099727 -0.07175,-0.09811 0.64842,-0.545433 1.145525,-0.559927 M 53.482452,9.6012247 c 0.378223,0.5034893 0.519304,0.8857593 0.558772,1.5138723 0.06842,1.085818 -0.328774,1.894033 -1.229443,2.504727 C 52.466095,13.174427 52.328596,12.844957 52.25448,12.286108 52.10261,11.1446 52.519436,10.232693 53.482452,9.6012247 M 26.494469,9.3083254 c 0.622286,0.2407995 0.635739,1.2755486 1.392804,0.9924416 l 0.159538,0.944172 c -0.146132,-0.08935 -0.680013,-0.121342 -0.900088,-0.107879 -0.840403,-0.02771 -0.928676,0.04879 -1.168853,0.479001 -0.203598,0.363768 -0.0712,0.823624 0.04726,1.067316 -0.389341,-0.367436 -3.588371,-2.003992 -2.87491,-2.9075439 0.504848,-0.6391423 2.116289,-0.9434059 3.344255,-0.4675038 M 17.0478,9.4467933 c 0.22641,0.049771 0.396018,0.1415375 0.521555,0.2639225 -0.08247,0.5295522 -0.260294,0.9507632 -0.291453,1.5740182 -0.02591,0.518309 0.306195,1.007296 0.08089,1.328208 -0.290037,0.412537 -0.601096,0.498707 -1.146606,0.507686 -0.642267,0.01031 -1.439651,-0.232865 -1.454666,-0.773057 -0.03766,-1.354546 1.029261,-3.1774406 2.290283,-2.9007782 M 67.145968,4.0245254 C 67.93099,3.9153973 68.634085,4.6972828 68.557925,5.4862138 68.500837,6.0778324 68.154037,6.5277533 67.571885,6.648538 66.85642,6.7969229 66.182483,6.2316414 66.084785,5.5070642 65.989395,4.8024836 66.44192,4.1227196 67.145968,4.0245254 M 10.878964,2.4902721 c 1.422445,0.032466 0.275292,0.8720605 1.588943,0.7436444 1.313289,-0.128414 3.055825,-0.5488172 5.02788,-0.7588601 1.283112,-0.1364866 3.078394,-0.2433854 3.298472,-0.256846 0.220069,-0.01346 0.07179,0.4349289 -0.0331,0.6774445 -0.183163,0.4204761 -0.590395,0.5118374 -1.031,0.5659967 -3.363479,0.4131862 -5.692434,0.9306306 -8.392494,1.7892168 -0.395899,2.1314046 -0.551719,3.3514527 -0.70365,5.5135306 -0.164476,2.338152 -0.06682,5.789849 -0.05336,6.009928 0.01144,0.18733 -0.04351,1.137549 -0.486713,1.051203 C 9.8771717,17.783284 9.7398796,17.670817 9.6563311,17.466346 9.2759693,15.812541 9.1329691,14.855707 9.0121086,13.162707 8.8009561,10.201805 8.9121016,8.4765918 9.5017989,5.5667343 8.0081609,6.0751471 7.1435713,6.3107483 5.5988772,6.6314277 3.972847,6.9687437 2.7356559,7.2723788 1.3828974,7.2236418 0.95182852,7.2083293 0.5312414,7.1216339 0.40351481,6.7092021 0.30327932,6.387351 0.41917659,5.970979 0.64544973,5.8800859 2.2280901,5.2089562 9.6781088,4.6412546 9.7944384,3.6943467 9.8213403,3.4756965 9.8262921,3.07671 10.073665,2.8163025 c 0.233485,-0.245081 0.584829,-0.3312508 0.80534,-0.326003 m 17.328479,0.1761204 c 0.957251,-0.1189608 1.352095,1.0723266 1.406422,2.0356568 0.128777,2.2732085 0.08238,4.2362023 0.09584,4.4562811 0.01346,0.2200788 0.111615,1.2065262 0.217558,1.9737192 0.721171,0.0026 1.13339,0.04483 1.839845,0.188242 0.10879,0.02199 0.121345,0.308196 0.277962,0.06045 0.83347,-1.322288 1.522126,-2.1748398 3.177449,-2.131524 2.436604,0.063737 3.337566,3.034757 3.412943,4.267175 0.111736,1.826795 -1.244854,2.801852 -2.837558,3.146667 -2.081063,0.450325 -4.236741,-0.902968 -4.240963,-3.630187 -4.83e-4,-0.227235 -0.04351,-0.133412 0.02362,-0.226233 -0.375171,0.09538 -0.514193,0.104986 -0.847217,0.115135 -0.262111,0.008 -0.528461,0.04504 -0.671849,-0.03415 0.07405,0.407578 0.139917,0.640712 0.207957,1.053959 0.176661,1.073889 0.49695,2.381104 0.227398,2.781776 -0.178202,0.264663 -0.422374,0.09797 -0.806124,0.139775 -0.943035,0.102963 -0.938094,-3.855524 -1.455357,-3.823886 -0.220077,0.01346 -0.626174,0.233042 -1.038705,0.208792 -0.337672,-0.01962 -0.535409,-0.07434 -0.836131,-0.229495 0.541972,0.401232 0.823626,1.076737 0.849878,1.505976 0.1023,1.672564 -1.057079,1.959779 -2.271076,2.313251 -1.577544,0.459814 -3.788724,-0.263797 -3.871378,-1.661528 l -0.02094,-0.34226 c 0,0 0.106799,-0.253232 -0.113249,-0.239774 -0.220079,0.01346 -0.359133,0.126581 -0.598714,0.150422 -0.844556,0.08351 -1.561101,-0.334652 -1.960293,-0.943949 -0.160183,-0.243965 -0.691574,0.816322 -1.806195,0.789428 -1.531757,0.156604 -3.238732,-0.199532 -3.353824,-2.081256 -0.10363,-1.694403 1.347238,-4.6760279 3.609371,-4.5524873 1.044357,0.057 1.603607,0.6540319 2.134424,1.3295062 0.319317,0.4070652 0.798442,0.4742513 0.901383,1.0535971 0.146032,0.821647 -0.505086,1.710075 -0.474137,2.216068 0.03299,0.539453 1.216903,1.063644 2.25684,1.452783 0.308563,0.115789 -0.483147,0.572083 0.1883,0.825074 1.388107,0.522654 1.956159,0.523967 2.960422,-0.04571 2.073489,-1.175115 -3.764212,-2.371062 -3.723994,-4.8454629 0.01786,-1.1119436 1.782859,-2.2805647 4.049512,-2.4124764 1.086885,-0.062469 2.317912,0.3074482 2.729371,0.9036213 0.03366,-0.3222759 0.07802,-0.6487328 0.0776,-1.0657655 -0.0027,-1.4199449 -0.8682,-2.5973246 -0.924733,-3.5216373 -0.03902,-0.6380377 0.554863,-1.0984926 1.208364,-1.1794589 m 31.611173,0.3660369 c 0.607736,0.066392 1.341073,0.3951164 1.212934,0.9928439 -0.305817,1.4200784 -0.648055,3.851096 -0.534438,4.4605465 l 0.644387,-0.039413 c 0.0145,-0.1832703 0.196543,-5.3503384 2.089188,-5.4660974 0.594379,-0.036353 1.392307,0.5913247 1.232888,1.278609 -0.254879,1.0971062 -0.912988,1.9060918 -1.154394,3.2176154 -0.06024,0.327078 -0.07518,0.781808 -0.12011,0.8446379 0.07915,0.057374 0.92442,-0.355197 1.545118,-0.4408694 0.800174,-0.1100547 1.316073,-0.1985448 2.069116,0.093988 0.434429,0.168523 0.987892,0.5552663 1.015103,0.6302951 -0.06252,-0.7617243 0.388285,-1.0366979 0.96553,-1.2663962 2.32854,-0.9288165 5.11753,0.5507995 5.221164,2.2452032 0.03299,0.5394418 -0.351793,0.7029368 -0.78444,0.7774688 -0.933831,0.161029 -0.284286,-1.6720433 -2.92561,-1.4366251 -0.265078,0.023226 -0.506651,0.3208086 -0.582323,0.3491212 1.561775,2.2410449 5.060774,2.7837489 5.195377,4.9844959 0.118451,1.936662 -2.279802,3.176174 -4.357972,3.07849 -1.580529,-0.07439 -3.304538,-0.246752 -3.494024,-2.062081 -0.576619,0.979659 -0.730975,1.31072 -1.497977,1.257966 -0.341094,-0.02371 -0.353379,-0.565451 -0.367506,-0.79644 -0.09556,-1.56236 1.157196,-4.807191 0.782559,-5.69119 -0.160185,-0.3768627 -0.903518,-0.1928499 -1.48485,-0.1569435 -0.630272,0.038892 -0.996195,0.1294565 -1.571637,0.3887705 l -0.06492,3.445741 c -0.01413,0.745909 -0.185487,1.532542 -0.826123,1.725462 -1.229957,0.369997 -0.877058,-1.886727 -1.016422,-4.905038 l -0.632409,0.03868 c 0.01546,0.383951 0.03802,0.752623 0.05214,0.983611 0.01346,0.220079 0.293676,2.264886 0.380638,3.334022 0.02632,0.332033 -0.236357,0.521631 -0.572341,0.633721 -0.626599,0.208682 -1.046124,-0.346001 -0.98795,-0.851084 -1.546055,1.003596 -2.641476,1.371376 -4.479679,1.504655 -1.317059,0.09579 -2.397984,-0.466547 -3.366329,-0.361376 -3.100208,0.337353 -5.01353,-0.977043 -6.129581,-2.917008 -0.03879,0.174853 -1.121058,2.774484 -2.669315,2.990757 -2.035025,0.284224 -2.78799,-2.081581 -3.366643,-4.053353 -0.322833,-1.100304 -0.317426,-1.9191903 -0.183001,-2.934711 0.0691,-0.5230633 0.678481,-0.6780349 1.203039,-0.6192888 0.752308,0.08406 1.105624,0.9142284 1.00054,1.6635814 -0.205175,1.4648174 0.173797,4.1475554 1.096516,3.8684544 1.161469,-0.351311 2.228219,-4.1697066 3.387663,-4.0108827 0.224177,0.030471 0.365611,-0.02637 0.577577,0.053039 0.429275,0.1593007 0.717427,0.8948517 0.719451,0.9279497 0.01014,0.165141 0.121698,0.544977 0.131109,0.698859 0.06866,1.122554 1.659173,2.671934 3.067651,2.585787 0.220069,-0.01346 0.298296,0.04046 0.448994,-0.03247 -0.299085,-0.567701 -0.434771,-1.283592 -0.448231,-1.503671 -0.07538,-1.232417 0.387463,-3.9510939 2.281048,-4.5772724 0.520331,-0.1721366 0.904332,-0.2677275 1.394332,-0.1729446 1.788055,0.346929 2.264067,3.281383 1.4223,5.213505 -0.235227,0.539947 -0.434001,0.815065 -0.836366,1.257434 0.09296,0.143824 1.011149,0.253775 1.665059,0.214141 1.14022,-0.06873 2.73485,-0.682581 2.706194,-1.122273 -0.0057,-0.08802 -0.368912,-2.044342 -0.325304,-2.464066 0.02265,-0.219452 -1.152787,0.545172 -1.777071,0.231338 -0.378506,-0.190327 -0.64028,-0.378958 -0.747337,-0.788757 -0.144881,-0.554169 0.202587,-1.29325 0.642735,-1.3201706 0.220078,-0.013461 1.595591,-0.4015475 1.742439,-0.3988672 3.71e-4,-1.2077153 0.05778,-3.1579583 0.04433,-3.378027 -0.03902,-0.6380476 0.361801,-2.3134625 1.366999,-2.2031726"
       style="fill:#ed1c24;fill-opacity:1;fill-rule:evenodd;stroke:none;stroke-width:0.35277775"
       id="path130" />
  </g>
</svg>
